<mxfile host="app.diagrams.net" modified="2023-08-19T10:11:34.843Z" agent="Mozilla/5.0 (Windows NT 10.0; Win64; x64) AppleWebKit/537.36 (KHTML, like Gecko) Chrome/115.0.0.0 Safari/537.36 Edg/115.0.1901.203" version="21.6.8" etag="U-Bd4c2b2C8qPnf8Vw0u" type="github">
  <diagram name="第 1 页" id="66KsQNwJ0Vt0nswwFwBa">
    <mxGraphModel>
      <root>
        <mxCell id="0" />
        <mxCell id="1" parent="0" />
      </root>
    </mxGraphModel>
  </diagram>
</mxfile>
